<?xml version="1.0" standalone="no"?>
<!DOCTYPE svg PUBLIC "-//W3C//DTD SVG 20010904//EN"
 "http://www.w3.org/TR/2001/REC-SVG-20010904/DTD/svg10.dtd">
<svg version="1.0" xmlns="http://www.w3.org/2000/svg"
 width="260.000000pt" height="260.000000pt" viewBox="0 0 260.000000 260.000000"
 preserveAspectRatio="xMidYMid meet">
<metadata>
Created by potrace 1.11, written by Peter Selinger 2001-2013
</metadata>
<g transform="translate(0.000000,260.000000) scale(0.100000,-0.100000)"
fill="#000000" stroke="none">
<path d="M1335 2026 c-70 -17 -111 -41 -166 -96 -96 -96 -140 -231 -140 -431
0 -189 35 -318 114 -418 77 -97 199 -149 324 -138 77 6 120 22 181 66 l42 31
0 -245 0 -245 145 0 145 0 0 735 0 735 -125 0 -125 0 -5 -25 c-3 -14 -7 -37
-11 -51 l-5 -27 -27 25 c-96 88 -215 117 -347 84z m263 -232 c20 -8 49 -27 65
-41 l27 -27 0 -232 c0 -222 -1 -232 -22 -259 -29 -37 -93 -65 -151 -65 -146 0
-214 113 -205 347 5 126 24 190 71 242 47 50 141 66 215 35z"/>
<path d="M607 1048 c-5 -164 -17 -214 -73 -318 -15 -28 -25 -52 -23 -53 2 -2
35 -20 73 -41 l69 -37 24 23 c44 41 115 157 139 228 19 54 26 99 31 209 l6
141 -120 0 -121 0 -5 -152z"/>
</g>
</svg>
